<svg id="visual" viewBox="0 0 1920 800" width="1920" height="800" xmlns="http://www.w3.org/2000/svg" xmlns:xlink="http://www.w3.org/1999/xlink" version="1.1"><rect x="0" y="0" width="1920" height="800" fill="#F9FAFB"></rect><defs><linearGradient id="grad1_0" x1="58.3%" y1="0%" x2="100%" y2="100%"><stop offset="2.0000000000000036%" stop-color="#bad4ea" stop-opacity="1"></stop><stop offset="98%" stop-color="#bad4ea" stop-opacity="1"></stop></linearGradient></defs><defs><linearGradient id="grad1_1" x1="58.3%" y1="0%" x2="100%" y2="100%"><stop offset="2.0000000000000036%" stop-color="#bad4ea" stop-opacity="1"></stop><stop offset="98%" stop-color="#c5daed" stop-opacity="1"></stop></linearGradient></defs><defs><linearGradient id="grad1_2" x1="58.3%" y1="0%" x2="100%" y2="100%"><stop offset="2.0000000000000036%" stop-color="#cfe0f0" stop-opacity="1"></stop><stop offset="98%" stop-color="#c5daed" stop-opacity="1"></stop></linearGradient></defs><defs><linearGradient id="grad1_3" x1="58.3%" y1="0%" x2="100%" y2="100%"><stop offset="2.0000000000000036%" stop-color="#cfe0f0" stop-opacity="1"></stop><stop offset="98%" stop-color="#dae7f3" stop-opacity="1"></stop></linearGradient></defs><defs><linearGradient id="grad1_4" x1="58.3%" y1="0%" x2="100%" y2="100%"><stop offset="2.0000000000000036%" stop-color="#e4edf5" stop-opacity="1"></stop><stop offset="98%" stop-color="#dae7f3" stop-opacity="1"></stop></linearGradient></defs><defs><linearGradient id="grad1_5" x1="58.3%" y1="0%" x2="100%" y2="100%"><stop offset="2.0000000000000036%" stop-color="#e4edf5" stop-opacity="1"></stop><stop offset="98%" stop-color="#eff4f8" stop-opacity="1"></stop></linearGradient></defs><defs><linearGradient id="grad1_6" x1="58.3%" y1="0%" x2="100%" y2="100%"><stop offset="2.0000000000000036%" stop-color="#f9fafb" stop-opacity="1"></stop><stop offset="98%" stop-color="#eff4f8" stop-opacity="1"></stop></linearGradient></defs><defs><linearGradient id="grad2_0" x1="0%" y1="0%" x2="41.7%" y2="100%"><stop offset="2.0000000000000036%" stop-color="#bad4ea" stop-opacity="1"></stop><stop offset="98%" stop-color="#bad4ea" stop-opacity="1"></stop></linearGradient></defs><defs><linearGradient id="grad2_1" x1="0%" y1="0%" x2="41.7%" y2="100%"><stop offset="2.0000000000000036%" stop-color="#c5daed" stop-opacity="1"></stop><stop offset="98%" stop-color="#bad4ea" stop-opacity="1"></stop></linearGradient></defs><defs><linearGradient id="grad2_2" x1="0%" y1="0%" x2="41.7%" y2="100%"><stop offset="2.0000000000000036%" stop-color="#c5daed" stop-opacity="1"></stop><stop offset="98%" stop-color="#cfe0f0" stop-opacity="1"></stop></linearGradient></defs><defs><linearGradient id="grad2_3" x1="0%" y1="0%" x2="41.7%" y2="100%"><stop offset="2.0000000000000036%" stop-color="#dae7f3" stop-opacity="1"></stop><stop offset="98%" stop-color="#cfe0f0" stop-opacity="1"></stop></linearGradient></defs><defs><linearGradient id="grad2_4" x1="0%" y1="0%" x2="41.7%" y2="100%"><stop offset="2.0000000000000036%" stop-color="#dae7f3" stop-opacity="1"></stop><stop offset="98%" stop-color="#e4edf5" stop-opacity="1"></stop></linearGradient></defs><defs><linearGradient id="grad2_5" x1="0%" y1="0%" x2="41.7%" y2="100%"><stop offset="2.0000000000000036%" stop-color="#eff4f8" stop-opacity="1"></stop><stop offset="98%" stop-color="#e4edf5" stop-opacity="1"></stop></linearGradient></defs><defs><linearGradient id="grad2_6" x1="0%" y1="0%" x2="41.7%" y2="100%"><stop offset="2.0000000000000036%" stop-color="#eff4f8" stop-opacity="1"></stop><stop offset="98%" stop-color="#f9fafb" stop-opacity="1"></stop></linearGradient></defs><g transform="translate(1920, 0)"><path d="M0 800C-85.2 790.8 -170.4 781.6 -242.3 745.6C-314.1 709.7 -372.6 647 -431.4 593.8C-490.3 540.7 -549.5 497.1 -609.2 442.6C-668.9 388.1 -729 322.8 -760.8 247.2C-792.7 171.6 -796.4 85.8 -800 0L0 0Z" fill="#f4f7fa"></path><path d="M0 685.7C-73 677.8 -146.1 669.9 -207.7 639.1C-269.2 608.3 -319.4 554.5 -369.8 509C-420.2 463.4 -471 426.1 -522.2 379.4C-573.3 332.7 -624.8 276.7 -652.2 211.9C-679.5 147.1 -682.6 73.6 -685.7 0L0 0Z" fill="#eaf0f7"></path><path d="M0 571.4C-60.9 564.9 -121.7 558.3 -173 532.6C-224.4 506.9 -266.1 462.1 -308.2 424.2C-350.2 386.2 -392.5 355.1 -435.1 316.1C-477.8 277.2 -520.7 230.6 -543.5 176.6C-566.2 122.6 -568.8 61.3 -571.4 0L0 0Z" fill="#dfeaf4"></path><path d="M0 457.1C-48.7 451.9 -97.4 446.6 -138.4 426.1C-179.5 405.5 -212.9 369.7 -246.5 339.3C-280.2 309 -314 284 -348.1 252.9C-382.2 221.8 -416.6 184.5 -434.8 141.3C-453 98.1 -455.1 49 -457.1 0L0 0Z" fill="#d5e4f1"></path><path d="M0 342.9C-36.5 338.9 -73 335 -103.8 319.6C-134.6 304.1 -159.7 277.3 -184.9 254.5C-210.1 231.7 -235.5 213 -261.1 189.7C-286.7 166.3 -312.4 138.3 -326.1 105.9C-339.7 73.6 -341.3 36.8 -342.9 0L0 0Z" fill="#caddee"></path><path d="M0 228.6C-24.3 225.9 -48.7 223.3 -69.2 213C-89.7 202.8 -106.5 184.8 -123.3 169.7C-140.1 154.5 -157 142 -174.1 126.5C-191.1 110.9 -208.3 92.2 -217.4 70.6C-226.5 49 -227.5 24.5 -228.6 0L0 0Z" fill="#bfd7eb"></path><path d="M0 114.3C-12.2 113 -24.3 111.7 -34.6 106.5C-44.9 101.4 -53.2 92.4 -61.6 84.8C-70 77.2 -78.5 71 -87 63.2C-95.6 55.4 -104.1 46.1 -108.7 35.3C-113.2 24.5 -113.8 12.3 -114.3 0L0 0Z" fill="#bad4ea"></path></g><g transform="translate(0, 800)"><path d="M0 -800C82.1 -786.1 164.2 -772.3 243.2 -748.5C322.2 -724.7 398.2 -691 468.5 -644.8C538.8 -598.6 603.4 -540 647.2 -470.2C691.1 -400.4 714.1 -319.4 736.1 -239.2C758.1 -158.9 779.1 -79.5 800 0L0 0Z" fill="#f4f7fa"></path><path d="M0 -685.7C70.4 -673.8 140.7 -662 208.5 -641.6C276.2 -621.2 341.3 -592.2 401.5 -552.7C461.8 -513.1 517.2 -462.9 554.8 -403.1C592.3 -343.2 612.1 -273.8 631 -205C649.8 -136.2 667.8 -68.1 685.7 0L0 0Z" fill="#eaf0f7"></path><path d="M0 -571.4C58.6 -561.5 117.3 -551.6 173.7 -534.6C230.2 -517.6 284.4 -493.5 334.6 -460.6C384.8 -427.6 431 -385.7 462.3 -335.9C493.6 -286 510.1 -228.2 525.8 -170.8C541.5 -113.5 556.5 -56.8 571.4 0L0 0Z" fill="#dfeaf4"></path><path d="M0 -457.1C46.9 -449.2 93.8 -441.3 139 -427.7C184.1 -414.1 227.5 -394.8 267.7 -368.4C307.9 -342.1 344.8 -308.6 369.8 -268.7C394.9 -228.8 408.1 -182.5 420.6 -136.7C433.2 -90.8 445.2 -45.4 457.1 0L0 0Z" fill="#d5e4f1"></path><path d="M0 -342.9C35.2 -336.9 70.4 -331 104.2 -320.8C138.1 -310.6 170.6 -296.1 200.8 -276.3C230.9 -256.6 258.6 -231.4 277.4 -201.5C296.2 -171.6 306 -136.9 315.5 -102.5C324.9 -68.1 333.9 -34.1 342.9 0L0 0Z" fill="#caddee"></path><path d="M0 -228.6C23.5 -224.6 46.9 -220.7 69.5 -213.9C92.1 -207.1 113.8 -197.4 133.8 -184.2C153.9 -171 172.4 -154.3 184.9 -134.4C197.4 -114.4 204 -91.3 210.3 -68.3C216.6 -45.4 222.6 -22.7 228.6 0L0 0Z" fill="#bfd7eb"></path><path d="M0 -114.3C11.7 -112.3 23.5 -110.3 34.7 -106.9C46 -103.5 56.9 -98.7 66.9 -92.1C77 -85.5 86.2 -77.1 92.5 -67.2C98.7 -57.2 102 -45.6 105.2 -34.2C108.3 -22.7 111.3 -11.4 114.3 0L0 0Z" fill="#bad4ea"></path></g></svg>