<svg id="visual" viewBox="0 0 1920 800" width="1920" height="800" xmlns="http://www.w3.org/2000/svg" xmlns:xlink="http://www.w3.org/1999/xlink" version="1.1"><rect x="0" y="0" width="1920" height="800" fill="#F9FAFB"></rect><defs><linearGradient id="grad1_0" x1="58.3%" y1="0%" x2="100%" y2="100%"><stop offset="2.0000000000000036%" stop-color="#3ba6ff" stop-opacity="1"></stop><stop offset="98%" stop-color="#3ba6ff" stop-opacity="1"></stop></linearGradient></defs><defs><linearGradient id="grad1_1" x1="58.3%" y1="0%" x2="100%" y2="100%"><stop offset="2.0000000000000036%" stop-color="#3ba6ff" stop-opacity="1"></stop><stop offset="98%" stop-color="#6eb7ff" stop-opacity="1"></stop></linearGradient></defs><defs><linearGradient id="grad1_2" x1="58.3%" y1="0%" x2="100%" y2="100%"><stop offset="2.0000000000000036%" stop-color="#94c8fe" stop-opacity="1"></stop><stop offset="98%" stop-color="#6eb7ff" stop-opacity="1"></stop></linearGradient></defs><defs><linearGradient id="grad1_3" x1="58.3%" y1="0%" x2="100%" y2="100%"><stop offset="2.0000000000000036%" stop-color="#94c8fe" stop-opacity="1"></stop><stop offset="98%" stop-color="#b7d9fd" stop-opacity="1"></stop></linearGradient></defs><defs><linearGradient id="grad1_4" x1="58.3%" y1="0%" x2="100%" y2="100%"><stop offset="2.0000000000000036%" stop-color="#d8eafc" stop-opacity="1"></stop><stop offset="98%" stop-color="#b7d9fd" stop-opacity="1"></stop></linearGradient></defs><defs><linearGradient id="grad1_5" x1="58.3%" y1="0%" x2="100%" y2="100%"><stop offset="2.0000000000000036%" stop-color="#d8eafc" stop-opacity="1"></stop><stop offset="98%" stop-color="#f9fafb" stop-opacity="1"></stop></linearGradient></defs><defs><linearGradient id="grad2_0" x1="0%" y1="0%" x2="41.7%" y2="100%"><stop offset="2.0000000000000036%" stop-color="#3ba6ff" stop-opacity="1"></stop><stop offset="98%" stop-color="#3ba6ff" stop-opacity="1"></stop></linearGradient></defs><defs><linearGradient id="grad2_1" x1="0%" y1="0%" x2="41.7%" y2="100%"><stop offset="2.0000000000000036%" stop-color="#6eb7ff" stop-opacity="1"></stop><stop offset="98%" stop-color="#3ba6ff" stop-opacity="1"></stop></linearGradient></defs><defs><linearGradient id="grad2_2" x1="0%" y1="0%" x2="41.7%" y2="100%"><stop offset="2.0000000000000036%" stop-color="#6eb7ff" stop-opacity="1"></stop><stop offset="98%" stop-color="#94c8fe" stop-opacity="1"></stop></linearGradient></defs><defs><linearGradient id="grad2_3" x1="0%" y1="0%" x2="41.7%" y2="100%"><stop offset="2.0000000000000036%" stop-color="#b7d9fd" stop-opacity="1"></stop><stop offset="98%" stop-color="#94c8fe" stop-opacity="1"></stop></linearGradient></defs><defs><linearGradient id="grad2_4" x1="0%" y1="0%" x2="41.7%" y2="100%"><stop offset="2.0000000000000036%" stop-color="#b7d9fd" stop-opacity="1"></stop><stop offset="98%" stop-color="#d8eafc" stop-opacity="1"></stop></linearGradient></defs><defs><linearGradient id="grad2_5" x1="0%" y1="0%" x2="41.7%" y2="100%"><stop offset="2.0000000000000036%" stop-color="#f9fafb" stop-opacity="1"></stop><stop offset="98%" stop-color="#d8eafc" stop-opacity="1"></stop></linearGradient></defs><g transform="translate(1920, 0)"><path d="M0 800C-81.9 787.8 -163.8 775.6 -244.7 753.2C-325.7 730.9 -405.7 698.4 -470.2 647.2C-534.7 596 -583.7 526.1 -627.8 456.1C-671.9 386.2 -711.1 316.1 -739 240.1C-766.9 164.1 -783.4 82 -800 0L0 0Z" fill="#e8f2fb"></path><path d="M0 666.7C-68.2 656.5 -136.5 646.3 -204 627.7C-271.4 609.1 -338.1 582 -391.9 539.3C-445.6 496.7 -486.4 438.4 -523.2 380.1C-559.9 321.8 -592.6 263.4 -615.8 200.1C-639 136.7 -652.9 68.4 -666.7 0L0 0Z" fill="#c7e1fc"></path><path d="M0 533.3C-54.6 525.2 -109.2 517.1 -163.2 502.2C-217.1 487.3 -270.5 465.6 -313.5 431.5C-356.5 397.3 -389.1 350.7 -418.5 304.1C-447.9 257.4 -474.1 210.8 -492.6 160.1C-511.2 109.4 -522.3 54.7 -533.3 0L0 0Z" fill="#a6d1fd"></path><path d="M0 400C-40.9 393.9 -81.9 387.8 -122.4 376.6C-162.9 365.4 -202.9 349.2 -235.1 323.6C-267.4 298 -291.9 263 -313.9 228.1C-335.9 193.1 -355.5 158.1 -369.5 120.1C-383.4 82 -391.7 41 -400 0L0 0Z" fill="#82c0fe"></path><path d="M0 266.7C-27.3 262.6 -54.6 258.5 -81.6 251.1C-108.6 243.6 -135.2 232.8 -156.7 215.7C-178.2 198.7 -194.6 175.4 -209.3 152C-224 128.7 -237 105.4 -246.3 80C-255.6 54.7 -261.1 27.3 -266.7 0L0 0Z" fill="#58afff"></path><path d="M0 133.3C-13.6 131.3 -27.3 129.3 -40.8 125.5C-54.3 121.8 -67.6 116.4 -78.4 107.9C-89.1 99.3 -97.3 87.7 -104.6 76C-112 64.4 -118.5 52.7 -123.2 40C-127.8 27.3 -130.6 13.7 -133.3 0L0 0Z" fill="#3ba6ff"></path></g><g transform="translate(0, 800)"><path d="M0 -800C74.5 -763.1 149 -726.1 228.1 -701.9C307.1 -677.6 390.7 -666 453.2 -623.8C515.7 -581.5 557.1 -508.6 610 -443.2C662.9 -377.8 727.3 -319.8 760.8 -247.2C794.4 -174.6 797.2 -87.3 800 0L0 0Z" fill="#e8f2fb"></path><path d="M0 -666.7C62.1 -635.9 124.2 -605.1 190 -584.9C255.9 -564.7 325.6 -555 377.7 -519.8C429.7 -484.6 464.3 -423.8 508.3 -369.3C552.4 -314.8 606.1 -266.5 634 -206C662 -145.5 664.3 -72.7 666.7 0L0 0Z" fill="#c7e1fc"></path><path d="M0 -533.3C49.7 -508.7 99.3 -484.1 152 -467.9C204.7 -451.7 260.5 -444 302.1 -415.8C343.8 -387.7 371.4 -339.1 406.7 -295.5C441.9 -251.8 484.8 -213.2 507.2 -164.8C529.6 -116.4 531.5 -58.2 533.3 0L0 0Z" fill="#a6d1fd"></path><path d="M0 -400C37.3 -381.5 74.5 -363.1 114 -350.9C153.5 -338.8 195.3 -333 226.6 -311.9C257.8 -290.8 278.6 -254.3 305 -221.6C331.4 -188.9 363.6 -159.9 380.4 -123.6C397.2 -87.3 398.6 -43.6 400 0L0 0Z" fill="#82c0fe"></path><path d="M0 -266.7C24.8 -254.4 49.7 -242 76 -234C102.4 -225.9 130.2 -222 151.1 -207.9C171.9 -193.8 185.7 -169.5 203.3 -147.7C221 -125.9 242.4 -106.6 253.6 -82.4C264.8 -58.2 265.7 -29.1 266.7 0L0 0Z" fill="#58afff"></path><path d="M0 -133.3C12.4 -127.2 24.8 -121 38 -117C51.2 -112.9 65.1 -111 75.5 -104C85.9 -96.9 92.9 -84.8 101.7 -73.9C110.5 -63 121.2 -53.3 126.8 -41.2C132.4 -29.1 132.9 -14.5 133.3 0L0 0Z" fill="#3ba6ff"></path></g></svg>