<svg id="visual" viewBox="0 0 1600 1000" width="1600" height="1000" xmlns="http://www.w3.org/2000/svg" xmlns:xlink="http://www.w3.org/1999/xlink" version="1.1"><rect x="0" y="0" width="1600" height="1000" fill="#e2e2e2"></rect><defs><linearGradient id="grad1_0" x1="37.5%" y1="0%" x2="100%" y2="100%"><stop offset="17.999999999999996%" stop-color="#bfa6d0" stop-opacity="1"></stop><stop offset="82%" stop-color="#bfa6d0" stop-opacity="1"></stop></linearGradient></defs><defs><linearGradient id="grad1_1" x1="37.5%" y1="0%" x2="100%" y2="100%"><stop offset="17.999999999999996%" stop-color="#bfa6d0" stop-opacity="1"></stop><stop offset="82%" stop-color="#c8b5d5" stop-opacity="1"></stop></linearGradient></defs><defs><linearGradient id="grad1_2" x1="37.5%" y1="0%" x2="100%" y2="100%"><stop offset="17.999999999999996%" stop-color="#d1c4d9" stop-opacity="1"></stop><stop offset="82%" stop-color="#c8b5d5" stop-opacity="1"></stop></linearGradient></defs><defs><linearGradient id="grad1_3" x1="37.5%" y1="0%" x2="100%" y2="100%"><stop offset="17.999999999999996%" stop-color="#d1c4d9" stop-opacity="1"></stop><stop offset="82%" stop-color="#d9d3de" stop-opacity="1"></stop></linearGradient></defs><defs><linearGradient id="grad1_4" x1="37.5%" y1="0%" x2="100%" y2="100%"><stop offset="17.999999999999996%" stop-color="#e2e2e2" stop-opacity="1"></stop><stop offset="82%" stop-color="#d9d3de" stop-opacity="1"></stop></linearGradient></defs><defs><linearGradient id="grad2_0" x1="0%" y1="0%" x2="62.5%" y2="100%"><stop offset="17.999999999999996%" stop-color="#bfa6d0" stop-opacity="1"></stop><stop offset="82%" stop-color="#bfa6d0" stop-opacity="1"></stop></linearGradient></defs><defs><linearGradient id="grad2_1" x1="0%" y1="0%" x2="62.5%" y2="100%"><stop offset="17.999999999999996%" stop-color="#c8b5d5" stop-opacity="1"></stop><stop offset="82%" stop-color="#bfa6d0" stop-opacity="1"></stop></linearGradient></defs><defs><linearGradient id="grad2_2" x1="0%" y1="0%" x2="62.5%" y2="100%"><stop offset="17.999999999999996%" stop-color="#c8b5d5" stop-opacity="1"></stop><stop offset="82%" stop-color="#d1c4d9" stop-opacity="1"></stop></linearGradient></defs><defs><linearGradient id="grad2_3" x1="0%" y1="0%" x2="62.5%" y2="100%"><stop offset="17.999999999999996%" stop-color="#d9d3de" stop-opacity="1"></stop><stop offset="82%" stop-color="#d1c4d9" stop-opacity="1"></stop></linearGradient></defs><defs><linearGradient id="grad2_4" x1="0%" y1="0%" x2="62.5%" y2="100%"><stop offset="17.999999999999996%" stop-color="#d9d3de" stop-opacity="1"></stop><stop offset="82%" stop-color="#e2e2e2" stop-opacity="1"></stop></linearGradient></defs><g transform="translate(1600, 0)"><path d="M0 613.2C-73.3 589.5 -146.6 565.8 -223.9 540.5C-301.2 515.2 -382.5 488.3 -433.6 433.6C-484.7 379 -505.4 296.6 -530.3 219.7C-555.2 142.8 -584.2 71.4 -613.2 0L0 0Z" fill="#dedae0"></path><path d="M0 490.6C-58.6 471.6 -117.2 452.6 -179.1 432.4C-240.9 412.1 -306 390.6 -346.9 346.9C-387.7 303.2 -404.3 237.2 -424.2 175.7C-444.2 114.2 -467.4 57.1 -490.6 0L0 0Z" fill="#d5cbdb"></path><path d="M0 367.9C-44 353.7 -87.9 339.5 -134.3 324.3C-180.7 309.1 -229.5 293 -260.2 260.2C-290.8 227.4 -303.3 177.9 -318.2 131.8C-333.1 85.7 -350.5 42.8 -367.9 0L0 0Z" fill="#ccbcd7"></path><path d="M0 245.3C-29.3 235.8 -58.6 226.3 -89.5 216.2C-120.5 206.1 -153 195.3 -173.4 173.4C-193.9 151.6 -202.2 118.6 -212.1 87.9C-222.1 57.1 -233.7 28.6 -245.3 0L0 0Z" fill="#c3add2"></path><path d="M0 122.6C-14.7 117.9 -29.3 113.2 -44.8 108.1C-60.2 103 -76.5 97.7 -86.7 86.7C-96.9 75.8 -101.1 59.3 -106.1 43.9C-111 28.6 -116.8 14.3 -122.6 0L0 0Z" fill="#bfa6d0"></path></g><g transform="translate(0, 1000)"><path d="M0 -613.2C72.5 -586.7 145 -560.2 221.6 -534.9C298.1 -509.6 378.7 -485.5 433.6 -433.6C488.5 -381.7 517.6 -301.9 543.2 -225C568.9 -148.1 591 -74.1 613.2 0L0 0Z" fill="#dedae0"></path><path d="M0 -490.6C58 -469.4 116 -448.2 177.3 -427.9C238.5 -407.7 303 -388.4 346.9 -346.9C390.8 -305.3 414.1 -241.5 434.6 -180C455.1 -118.5 472.8 -59.2 490.6 0L0 0Z" fill="#d5cbdb"></path><path d="M0 -367.9C43.5 -352 87 -336.1 132.9 -321C178.9 -305.8 227.2 -291.3 260.2 -260.2C293.1 -229 310.6 -181.2 325.9 -135C341.3 -88.9 354.6 -44.4 367.9 0L0 0Z" fill="#ccbcd7"></path><path d="M0 -245.3C29 -234.7 58 -224.1 88.6 -214C119.3 -203.9 151.5 -194.2 173.4 -173.4C195.4 -152.7 207 -120.8 217.3 -90C227.6 -59.2 236.4 -29.6 245.3 0L0 0Z" fill="#c3add2"></path><path d="M0 -122.6C14.5 -117.3 29 -112 44.3 -107C59.6 -101.9 75.7 -97.1 86.7 -86.7C97.7 -76.3 103.5 -60.4 108.6 -45C113.8 -29.6 118.2 -14.8 122.6 0L0 0Z" fill="#bfa6d0"></path></g></svg>