<svg id="visual" viewBox="0 0 1920 1080" width="1920" height="1080" xmlns="http://www.w3.org/2000/svg" xmlns:xlink="http://www.w3.org/1999/xlink" version="1.1"><rect x="0" y="0" width="1920" height="1080" fill="#ffffff"></rect><defs><linearGradient id="grad1_0" x1="43.8%" y1="0%" x2="100%" y2="100%"><stop offset="14.444444444444446%" stop-color="#ddd4e5" stop-opacity="1"></stop><stop offset="85.55555555555554%" stop-color="#ddd4e5" stop-opacity="1"></stop></linearGradient></defs><defs><linearGradient id="grad1_1" x1="43.8%" y1="0%" x2="100%" y2="100%"><stop offset="14.444444444444446%" stop-color="#ddd4e5" stop-opacity="1"></stop><stop offset="85.55555555555554%" stop-color="#e5dfeb" stop-opacity="1"></stop></linearGradient></defs><defs><linearGradient id="grad1_2" x1="43.8%" y1="0%" x2="100%" y2="100%"><stop offset="14.444444444444446%" stop-color="#eee9f2" stop-opacity="1"></stop><stop offset="85.55555555555554%" stop-color="#e5dfeb" stop-opacity="1"></stop></linearGradient></defs><defs><linearGradient id="grad1_3" x1="43.8%" y1="0%" x2="100%" y2="100%"><stop offset="14.444444444444446%" stop-color="#eee9f2" stop-opacity="1"></stop><stop offset="85.55555555555554%" stop-color="#f6f4f8" stop-opacity="1"></stop></linearGradient></defs><defs><linearGradient id="grad1_4" x1="43.8%" y1="0%" x2="100%" y2="100%"><stop offset="14.444444444444446%" stop-color="#ffffff" stop-opacity="1"></stop><stop offset="85.55555555555554%" stop-color="#f6f4f8" stop-opacity="1"></stop></linearGradient></defs><defs><linearGradient id="grad2_0" x1="0%" y1="0%" x2="56.3%" y2="100%"><stop offset="14.444444444444446%" stop-color="#ddd4e5" stop-opacity="1"></stop><stop offset="85.55555555555554%" stop-color="#ddd4e5" stop-opacity="1"></stop></linearGradient></defs><defs><linearGradient id="grad2_1" x1="0%" y1="0%" x2="56.3%" y2="100%"><stop offset="14.444444444444446%" stop-color="#e5dfeb" stop-opacity="1"></stop><stop offset="85.55555555555554%" stop-color="#ddd4e5" stop-opacity="1"></stop></linearGradient></defs><defs><linearGradient id="grad2_2" x1="0%" y1="0%" x2="56.3%" y2="100%"><stop offset="14.444444444444446%" stop-color="#e5dfeb" stop-opacity="1"></stop><stop offset="85.55555555555554%" stop-color="#eee9f2" stop-opacity="1"></stop></linearGradient></defs><defs><linearGradient id="grad2_3" x1="0%" y1="0%" x2="56.3%" y2="100%"><stop offset="14.444444444444446%" stop-color="#f6f4f8" stop-opacity="1"></stop><stop offset="85.55555555555554%" stop-color="#eee9f2" stop-opacity="1"></stop></linearGradient></defs><defs><linearGradient id="grad2_4" x1="0%" y1="0%" x2="56.3%" y2="100%"><stop offset="14.444444444444446%" stop-color="#f6f4f8" stop-opacity="1"></stop><stop offset="85.55555555555554%" stop-color="#ffffff" stop-opacity="1"></stop></linearGradient></defs><g transform="translate(1920, 0)"><path d="M0 790C-85 788.8 -170.1 787.5 -248.1 763.7C-326.2 739.9 -397.4 693.5 -468.5 644.8C-539.6 596.1 -610.6 545.2 -655.3 476.1C-700 407 -718.2 319.7 -730.4 237.3C-742.6 154.9 -748.8 77.5 -755 0L0 0Z" fill="#fbfafc"></path><path d="M0 632C-68 631 -136 630 -198.5 611C-261 591.9 -317.9 554.8 -374.8 515.8C-431.7 476.9 -488.5 436.2 -524.2 380.9C-560 325.6 -574.6 255.8 -584.3 189.9C-594.1 124 -599 62 -604 0L0 0Z" fill="#f2eff5"></path><path d="M0 474C-51 473.3 -102 472.5 -148.9 458.2C-195.7 443.9 -238.4 416.1 -281.1 386.9C-323.7 357.7 -366.4 327.1 -393.2 285.7C-420 244.2 -430.9 191.8 -438.2 142.4C-445.6 93 -449.3 46.5 -453 0L0 0Z" fill="#eae4ef"></path><path d="M0 316C-34 315.5 -68 315 -99.3 305.5C-130.5 295.9 -158.9 277.4 -187.4 257.9C-215.8 238.4 -244.3 218.1 -262.1 190.4C-280 162.8 -287.3 127.9 -292.2 94.9C-297 62 -299.5 31 -302 0L0 0Z" fill="#e1d9e8"></path><path d="M0 158C-17 157.8 -34 157.5 -49.6 152.7C-65.2 148 -79.5 138.7 -93.7 129C-107.9 119.2 -122.1 109 -131.1 95.2C-140 81.4 -143.6 63.9 -146.1 47.5C-148.5 31 -149.8 15.5 -151 0L0 0Z" fill="#ddd4e5"></path></g><g transform="translate(0, 1080)"><path d="M0 -768C73.9 -744.6 147.8 -721.2 230.2 -708.5C312.6 -695.9 403.5 -694 476.1 -655.3C548.7 -616.6 603.1 -541.2 638.3 -463.8C673.5 -386.3 689.6 -306.9 705.7 -229.3C721.8 -151.7 737.9 -75.8 754 0L0 0Z" fill="#fbfafc"></path><path d="M0 -614.4C59.1 -595.7 118.3 -577 184.2 -566.8C250.1 -556.7 322.8 -555.2 380.9 -524.2C439 -493.3 482.5 -433 510.7 -371C538.8 -309.1 551.7 -245.5 564.5 -183.4C577.4 -121.3 590.3 -60.7 603.2 0L0 0Z" fill="#f2eff5"></path><path d="M0 -460.8C44.3 -446.8 88.7 -432.7 138.1 -425.1C187.6 -417.5 242.1 -416.4 285.7 -393.2C329.2 -370 361.9 -324.7 383 -278.3C404.1 -231.8 413.8 -184.1 423.4 -137.6C433.1 -91 442.7 -45.5 452.4 0L0 0Z" fill="#eae4ef"></path><path d="M0 -307.2C29.6 -297.8 59.1 -288.5 92.1 -283.4C125 -278.4 161.4 -277.6 190.4 -262.1C219.5 -246.7 241.2 -216.5 255.3 -185.5C269.4 -154.5 275.8 -122.8 282.3 -91.7C288.7 -60.7 295.2 -30.3 301.6 0L0 0Z" fill="#e1d9e8"></path><path d="M0 -153.6C14.8 -148.9 29.6 -144.2 46 -141.7C62.5 -139.2 80.7 -138.8 95.2 -131.1C109.7 -123.3 120.6 -108.2 127.7 -92.8C134.7 -77.3 137.9 -61.4 141.1 -45.9C144.4 -30.3 147.6 -15.2 150.8 0L0 0Z" fill="#ddd4e5"></path></g></svg>